<svg width="678" height="223" viewBox="0 0 678 223" fill="none" xmlns="http://www.w3.org/2000/svg">
<path d="M20.0573 215.171L7.8042 201.306L137.751 10.0939L156.131 19.0772V29.0264V46.3571L158.388 85.8327V104.768L160 127.555L158.388 146.811V171.845V199.766L156.131 211.641L135.172 213.888L20.0573 215.171Z" fill="white" stroke="#0B2447" stroke-width="3"/>
<path d="M14.5757 208.078H77.4532L100.992 205.82L148.714 204.853" stroke="#0B2447"/>
<path d="M151.616 208.4L84.547 209.69L16.5103 210.98" stroke="#0B2447" stroke-width="2"/>
<path d="M144.522 13.6409L147.425 42.3389L148.714 65.8776L147.425 105.861L150.649 142.943V191.955L149.037 205.176" stroke="#0B2447" stroke-width="3"/>
<path d="M156.776 209.69L155.808 191.955L154.196 161.323V103.282L158.066 83.2899L154.196 47.8205L152.584 16.5429" stroke="#0B2447"/>
<path d="M148.714 15.5756L150.327 31.6981V50.0777L151.616 85.8695L152.906 105.861V133.914V167.127L151.294 208.723" stroke="#0B2447" stroke-width="2"/>
<path d="M6.51429 181.637V195.596C6.51429 199.462 9.6483 202.596 13.5143 202.596H22.3143H95.5102H138.167C142.033 202.596 145.167 199.462 145.167 195.596V175.188L147.703 142.544C147.732 142.166 147.731 141.786 147.699 141.408L145.167 111.665L142.265 72.649L139.966 16.3227C139.811 12.5073 136.626 9.5207 132.808 9.6101L8.83611 12.5134C5.03501 12.6024 2 15.7094 2 19.5115V57.8164V108.763L6.51429 181.637Z" fill="white" stroke="#0B2447" stroke-width="4"/>
<path d="M8.44922 18.8001L9.2196 10.8394C9.34508 9.54286 10.0103 8.35889 11.0524 7.57731L11.6582 7.12297C13.2931 5.89675 15.6021 6.16646 16.9105 7.73647V7.73647C17.4854 8.42636 17.8002 9.29597 17.8002 10.194V11.7062" stroke="#0B2447" stroke-width="5"/>
<path d="M21.3472 18.4775L21.7306 14.5154C22.0864 10.8388 24.5525 7.70692 28.043 6.49866L29.6584 5.93947C30.3369 5.70462 31.0691 5.67228 31.7656 5.84642V5.84642C33.4124 6.2581 34.5676 7.73769 34.5676 9.43509V11.0612" stroke="#0B2447" stroke-width="5"/>
<path d="M34.8896 18.4775L35.2814 14.3281C35.6181 10.7623 37.9924 7.71557 41.3679 6.51793L42.9768 5.94707C43.652 5.70751 44.3833 5.67454 45.0773 5.85238V5.85238C46.6722 6.26108 47.7876 7.69836 47.7876 9.34482V11.0612" stroke="#0B2447" stroke-width="5"/>
<path d="M51.0122 17.8327L51.3956 13.8706C51.7514 10.1941 54.2175 7.06215 57.708 5.85389L59.3235 5.2947C60.002 5.05984 60.7341 5.02751 61.4307 5.20164V5.20164C63.0774 5.61332 64.2326 7.09291 64.2326 8.79032V10.4164" stroke="#0B2447" stroke-width="5"/>
<path d="M65.1997 18.4775L65.5831 14.5154C65.9389 10.8388 68.405 7.70692 71.8955 6.49866L73.511 5.93947C74.1895 5.70462 74.9216 5.67228 75.6182 5.84642V5.84642C77.2649 6.2581 78.4201 7.73769 78.4201 9.43509V11.0612" stroke="#0B2447" stroke-width="5"/>
<path d="M80.0327 18.4775L80.4161 14.5154C80.7719 10.8388 83.238 7.70692 86.7285 6.49866L88.344 5.93947C89.0225 5.70462 89.7546 5.67228 90.4512 5.84642V5.84642C92.0979 6.2581 93.2531 7.73769 93.2531 9.43509V11.0612" stroke="#0B2447" stroke-width="5"/>
<path d="M96.1553 16.5429L96.5387 12.5808C96.8945 8.90423 99.3606 5.77232 102.851 4.56406L104.467 4.00487C105.145 3.77002 105.877 3.73768 106.574 3.91182V3.91182C108.22 4.3235 109.376 5.80309 109.376 7.50049V9.12659" stroke="#0B2447" stroke-width="5"/>
<path d="M111.633 15.898L112.016 11.9359C112.372 8.2593 114.838 5.1274 118.329 3.91913L119.944 3.35995C120.623 3.12509 121.355 3.09275 122.051 3.26689V3.26689C123.698 3.67857 124.853 5.15816 124.853 6.85556V8.48166" stroke="#0B2447" stroke-width="5"/>
<path d="M127.755 17.8328L128.565 9.45687C128.665 8.42763 129.205 7.49187 130.047 6.89084L130.179 6.7966C130.699 6.42459 131.323 6.22461 131.963 6.22461V6.22461C133.448 6.22461 134.719 7.28596 134.985 8.74611L135.171 9.77155" stroke="#0B2447" stroke-width="5"/>
<circle cx="8.12665" cy="20.7348" r="2.40204" fill="#0B2447" stroke="#0B2447"/>
<circle cx="20.3796" cy="20.7348" r="2.40204" fill="#0B2447" stroke="#0B2447"/>
<circle cx="50.69" cy="20.7347" r="3.04694" fill="#0B2447" stroke="#0B2447"/>
<circle cx="64.2325" cy="20.0899" r="3.04694" fill="#0B2447" stroke="#0B2447"/>
<circle cx="79.71" cy="20.0899" r="3.04694" fill="#0B2447" stroke="#0B2447"/>
<circle cx="96.4776" cy="18.1551" r="3.04694" fill="#0B2447" stroke="#0B2447"/>
<circle cx="111.955" cy="18.1551" r="3.04694" fill="#0B2447" stroke="#0B2447"/>
<circle cx="128.722" cy="18.1551" r="3.04694" fill="#0B2447" stroke="#0B2447"/>
<circle cx="34.5676" cy="20.7348" r="2.40204" fill="#0B2447" stroke="#0B2447"/>
<circle cx="39.3503" cy="101.35" r="14.3503" fill="#0B2447"/>
<circle cx="105.193" cy="101.35" r="14.3503" fill="#0B2447"/>
<path d="M58.2026 111.761V111.761C60.6572 128.492 84.9963 128.563 86.9032 111.761V111.761" stroke="#0B2447" stroke-width="8" stroke-linecap="round"/>
<path d="M223.438 169V48.375H261.328C275.495 48.375 285.99 51.5 292.812 57.75C299.74 64.1562 303.203 72.4375 303.203 82.5938C303.203 97.6979 295.703 105.875 280.703 107.125C289.245 108.375 295.495 111.188 299.453 115.562C303.464 119.938 305.469 126.24 305.469 134.469C305.469 144.833 302.109 153.167 295.391 159.469C288.724 165.823 279.948 169 269.062 169H223.438ZM256.016 142.828C256.641 142.88 257.188 142.932 257.656 142.984C258.125 142.984 258.516 142.984 258.828 142.984C262.891 142.984 266.12 141.917 268.516 139.781C270.964 137.646 272.188 134.781 272.188 131.188C272.188 127.594 270.964 124.781 268.516 122.75C266.12 120.719 262.812 119.703 258.594 119.703H256.016V142.828ZM256.016 95.25H258.203C262.109 95.25 265.182 94.3385 267.422 92.5156C269.714 90.6927 270.859 88.1406 270.859 84.8594C270.859 77.8802 267.031 74.3906 259.375 74.3906C259.01 74.3906 258.542 74.4167 257.969 74.4688C257.448 74.4688 256.797 74.4948 256.016 74.5469V95.25ZM349.531 169H318.203V37.0469H349.531V169ZM440.234 128.062C440.234 141.083 436.641 151.448 429.453 159.156C422.266 166.865 412.63 170.719 400.547 170.719C388.672 170.719 379.219 166.786 372.188 158.922C365.208 151.005 361.719 140.38 361.719 127.047C361.719 113.714 365.286 103.01 372.422 94.9375C379.505 86.8125 388.906 82.75 400.625 82.75C412.969 82.75 422.656 86.7865 429.688 94.8594C436.719 102.932 440.234 114 440.234 128.062ZM409.844 127.047C409.844 123.922 409.635 121.109 409.219 118.609C408.802 116.057 408.203 113.896 407.422 112.125C406.641 110.302 405.703 108.896 404.609 107.906C403.516 106.917 402.292 106.422 400.938 106.422C398.281 106.422 396.146 108.297 394.531 112.047C392.917 115.328 392.109 120.25 392.109 126.812C392.109 133.271 392.917 138.193 394.531 141.578C396.146 145.328 398.307 147.203 401.016 147.203C403.568 147.203 405.677 145.354 407.344 141.656C409.01 137.542 409.844 132.672 409.844 127.047ZM527.109 84.5469V171.422C527.109 178.036 526.198 183.766 524.375 188.609C522.552 193.089 519.583 196.917 515.469 200.094C508.542 205.458 499.74 208.141 489.062 208.141C477.552 208.141 468.724 205.667 462.578 200.719C456.432 195.771 452.63 188.062 451.172 177.594H483.203C483.411 182.177 485.599 184.469 489.766 184.469C492.422 184.469 494.297 183.531 495.391 181.656C496.484 179.833 497.031 176.786 497.031 172.516V159.156C491.458 166.448 484.896 170.094 477.344 170.094C469.167 170.094 462.552 166.109 457.5 158.141C452.5 150.172 450 139.703 450 126.734C450 113.818 452.5 103.245 457.5 95.0156C462.552 86.8385 469.089 82.75 477.109 82.75C480.807 82.75 484.036 83.6875 486.797 85.5625C489.661 87.4896 492.76 90.849 496.094 95.6406L495.469 84.5469H527.109ZM496.719 126.5C496.719 114.312 494.479 108.219 490 108.219C484.948 108.219 482.422 114.156 482.422 126.031C482.422 138.271 484.87 144.391 489.766 144.391C494.401 144.391 496.719 138.427 496.719 126.5ZM572.969 169H541.562V84.5469H572.969V169ZM575.625 58.375C575.625 63.3229 573.828 67.5938 570.234 71.1875C566.536 74.7292 562.24 76.5 557.344 76.5C552.292 76.5 547.969 74.7031 544.375 71.1094C540.833 67.4115 539.062 63.0885 539.062 58.1406C539.062 53.0885 540.833 48.7917 544.375 45.25C548.073 41.7083 552.37 39.9375 557.266 39.9375C562.422 39.9375 566.771 41.7344 570.312 45.3281C573.854 48.8698 575.625 53.2188 575.625 58.375ZM630.781 140.406L661.406 141.031C659.219 150.875 654.948 158.297 648.594 163.297C642.292 168.245 634.036 170.719 623.828 170.719C611.745 170.719 602.266 166.969 595.391 159.469C588.568 151.865 585.156 141.474 585.156 128.297C585.156 114.911 588.828 104 596.172 95.5625C603.516 87.0729 612.995 82.8281 624.609 82.8281C636.172 82.8281 645.391 86.9167 652.266 95.0938C659.141 103.323 662.578 114.234 662.578 127.828L662.422 133.375H616.484C616.849 142.021 619.297 146.344 623.828 146.344C627.37 146.344 629.688 144.365 630.781 140.406ZM631.484 116.5C631.484 114.938 631.302 113.505 630.938 112.203C630.573 110.901 630.052 109.781 629.375 108.844C628.75 107.906 627.995 107.177 627.109 106.656C626.224 106.083 625.26 105.797 624.219 105.797C622.031 105.797 620.26 106.812 618.906 108.844C617.552 110.823 616.875 113.375 616.875 116.5H631.484Z" fill="white"/>
</svg>
