<svg width="88" height="35" viewBox="0 0 88 35" fill="none" xmlns="http://www.w3.org/2000/svg">
<path fill-rule="evenodd" clip-rule="evenodd" d="M26.1085 13.0543C26.1085 20.2639 20.2639 26.1085 13.0543 26.1085C5.8446 26.1085 0 20.2639 0 13.0543C0 5.8446 5.8446 0 13.0543 0C20.2639 0 26.1085 5.8446 26.1085 13.0543ZM87.796 13.0543C87.796 20.2639 81.9514 26.1085 74.7418 26.1085C67.5321 26.1085 61.6875 20.2639 61.6875 13.0543C61.6875 5.8446 67.5321 0 74.7418 0C81.9514 0 87.796 5.8446 87.796 13.0543ZM32.9741 20.6789C32.7967 19.5887 31.7692 18.8486 30.6789 19.0259C29.5887 19.2033 28.8486 20.2308 29.0259 21.3211C31.7819 38.2652 56.388 38.4932 58.9777 21.2978C59.1422 20.2056 58.3901 19.1868 57.2978 19.0223C56.2056 18.8578 55.1868 19.6099 55.0223 20.7022C53.1453 33.1655 35.0332 33.3389 32.9741 20.6789Z" fill="black"/>
</svg>
