<svg width="141" height="279" viewBox="0 0 141 279" fill="none" xmlns="http://www.w3.org/2000/svg">
<path d="M51.5633 237.801L52.2953 241.933L49.073 241.28C47.4992 240.961 45.863 241.275 44.5192 242.154C39.3796 245.517 41.8669 253.509 48.0068 253.362L55.6367 253.179C56.1201 253.167 56.6013 253.108 57.0731 253.001C61.0343 252.111 63.5233 248.177 62.6325 244.216L55.4369 212.22C54.7798 209.298 54.4518 206.312 54.4588 203.317L54.5524 163.371C54.557 161.388 52.961 159.772 50.9782 159.753C48.9946 159.734 47.3673 161.319 47.3344 163.302L46.6395 205.189C46.5909 208.12 46.8239 211.049 47.3353 213.936L51.5633 237.801Z" fill="black"/>
<path d="M52.2953 241.933L51.5633 237.801M52.2953 241.933L47.3353 213.936C46.8239 211.049 46.5909 208.12 46.6395 205.189L47.3344 163.302C47.3673 161.319 48.9946 159.734 50.9782 159.753V159.753C52.961 159.772 54.557 161.388 54.5524 163.371L54.4588 203.317C54.4518 206.312 54.7798 209.298 55.4369 212.22L62.6325 244.216C63.5233 248.177 61.0343 252.111 57.0731 253.001V253.001C56.6013 253.108 56.1201 253.167 55.6367 253.179L48.0068 253.362C41.8669 253.509 39.3796 245.517 44.5192 242.154V242.154C45.863 241.275 47.4992 240.961 49.073 241.28L52.2953 241.933ZM86.7158 265.95L85.801 266.903" stroke="black"/>
<path d="M93.5499 237.129L94.1887 241.276L90.982 240.551C89.4157 240.196 87.7729 240.473 86.4096 241.322C81.1957 244.568 83.5024 252.615 89.6442 252.606L97.2762 252.594C97.7598 252.593 98.2422 252.545 98.7162 252.449C102.696 251.648 105.273 247.772 104.472 243.791L97.9982 211.641C97.407 208.705 97.1462 205.713 97.2207 202.719L98.2132 162.784C98.2624 160.802 96.7032 159.151 94.7213 159.087C92.7386 159.024 91.0761 160.572 90.9985 162.554L89.3612 204.414C89.2466 207.343 89.4137 210.277 89.86 213.175L93.5499 237.129Z" fill="black"/>
<path d="M94.1887 241.276L93.5499 237.129M94.1887 241.276L89.86 213.175C89.4137 210.277 89.2466 207.343 89.3612 204.414L90.9985 162.554C91.0761 160.572 92.7386 159.024 94.7213 159.087V159.087C96.7032 159.151 98.2624 160.802 98.2132 162.784L97.2207 202.719C97.1462 205.713 97.4071 208.705 97.9982 211.641L104.472 243.791C105.273 247.772 102.696 251.648 98.7162 252.449V252.449C98.2422 252.545 97.7598 252.593 97.2762 252.594L89.6442 252.606C83.5024 252.615 81.1957 244.568 86.4096 241.322V241.322C87.7729 240.473 89.4157 240.196 90.982 240.551L94.1887 241.276ZM128.06 266.062L127.124 266.994" stroke="black"/>
<path d="M17.6572 186.972L7.03271 174.949L119.708 9.15109L135.645 16.9404V25.5672V40.5945L137.602 74.8233V91.2421L139 111L137.602 127.697V149.403V173.614L135.645 183.91L117.471 185.858L17.6572 186.972Z" fill="white" stroke="black" stroke-width="3"/>
<path d="M12.9043 180.82H67.4247L87.8349 178.863L129.214 178.025" stroke="black"/>
<path d="M131.731 181.1L73.5754 182.218L14.5815 183.337" stroke="black" stroke-width="2"/>
<path d="M125.58 12.2266L128.096 37.1103L129.214 57.5205L128.096 92.1899L130.892 124.343V166.841L129.494 178.304" stroke="black" stroke-width="3"/>
<path d="M136.205 182.218L135.366 166.841L133.968 140.28V89.9532L137.323 72.6185L133.968 41.8634L132.57 14.743" stroke="black"/>
<path d="M129.215 13.9042L130.613 27.8838V43.8205L131.731 74.8552L132.85 92.1899V116.514V145.312L131.452 181.38" stroke="black" stroke-width="2"/>
<path d="M5.91429 157.894V169.067C5.91429 172.933 9.04829 176.067 12.9143 176.067H19.6143H83.0816H119.139C123.005 176.067 126.139 172.933 126.139 169.067V152.302L128.331 124.072C128.361 123.694 128.359 123.314 128.327 122.936L126.139 97.2225L123.622 63.3919L121.666 15.4656C121.511 11.6502 118.326 8.66355 114.508 8.75295L8.83611 11.2277C5.03501 11.3167 2 14.4237 2 18.2258V50.5307V94.7062L5.91429 157.894Z" fill="white" stroke="black" stroke-width="4"/>
<path d="M7.5918 16.7001L8.25979 9.7975C8.36859 8.67325 8.94537 7.64665 9.84897 6.96894L10.3742 6.57499C11.7919 5.51175 13.794 5.74561 14.9285 7.10695V7.10695C15.427 7.70515 15.7 8.45918 15.7 9.23786V10.5491" stroke="black" stroke-width="5"/>
<path d="M18.7759 16.4204L19.1083 12.9849C19.4169 9.79698 21.5552 7.08134 24.5818 6.03367L25.9825 5.5488C26.5708 5.34516 27.2056 5.31712 27.8096 5.46811V5.46811C29.2375 5.82508 30.2391 7.10801 30.2391 8.57981V9.98979" stroke="black" stroke-width="5"/>
<path d="M30.5181 16.4204L30.8578 12.8225C31.1497 9.73066 33.2084 7.08883 36.1353 6.05037L37.5303 5.55539C38.1158 5.34767 38.7499 5.31908 39.3516 5.47329V5.47329C40.7346 5.82766 41.7017 7.07392 41.7017 8.50154V9.98979" stroke="black" stroke-width="5"/>
<path d="M44.498 15.8613L44.8305 12.4258C45.139 9.23789 47.2773 6.52226 50.3039 5.47459L51.7047 4.98972C52.293 4.78608 52.9278 4.75804 53.5318 4.90903V4.90903C54.9596 5.266 55.9613 6.54893 55.9613 8.02073V9.4307" stroke="black" stroke-width="5"/>
<path d="M56.7998 16.4204L57.1323 12.9849C57.4408 9.79698 59.5791 7.08134 62.6057 6.03367L64.0064 5.5488C64.5947 5.34516 65.2296 5.31712 65.8335 5.46811V5.46811C67.2614 5.82508 68.2631 7.10801 68.2631 8.57981V9.98979" stroke="black" stroke-width="5"/>
<path d="M69.6611 16.4204L69.9936 12.9849C70.3021 9.79698 72.4404 7.08134 75.467 6.03367L76.8677 5.5488C77.456 5.34516 78.0909 5.31712 78.6949 5.46811V5.46811C80.1227 5.82508 81.1244 7.10801 81.1244 8.57981V9.98979" stroke="black" stroke-width="5"/>
<path d="M83.6406 14.7429L83.9731 11.3074C84.2816 8.11949 86.4199 5.40385 89.4465 4.35618L90.8472 3.87131C91.4355 3.66767 92.0704 3.63963 92.6744 3.79062V3.79062C94.1022 4.14759 95.1039 5.43052 95.1039 6.90232V8.3123" stroke="black" stroke-width="5"/>
<path d="M97.0615 14.1837L97.394 10.7482C97.7025 7.56031 99.8408 4.84467 102.867 3.79701L104.268 3.31214C104.856 3.1085 105.491 3.08046 106.095 3.23145V3.23145C107.523 3.58842 108.525 4.87135 108.525 6.34315V7.75312" stroke="black" stroke-width="5"/>
<path d="M111.041 15.8614L111.744 8.5987C111.83 7.70627 112.299 6.89488 113.028 6.37374L113.143 6.29202C113.594 5.96945 114.135 5.79605 114.69 5.79605V5.79605C115.977 5.79605 117.08 6.71634 117.31 7.98242L117.472 8.87156" stroke="black" stroke-width="5"/>
<circle cx="7.31223" cy="18.3777" r="2.01633" fill="black" stroke="black"/>
<circle cx="17.9367" cy="18.3777" r="2.01633" fill="black" stroke="black"/>
<circle cx="44.2181" cy="18.3775" r="2.57551" fill="black" stroke="black"/>
<circle cx="55.9608" cy="17.8185" r="2.57551" fill="black" stroke="black"/>
<circle cx="69.3817" cy="17.8185" r="2.57551" fill="black" stroke="black"/>
<circle cx="83.9202" cy="16.1408" r="2.57551" fill="black" stroke="black"/>
<circle cx="97.3411" cy="16.1408" r="2.57551" fill="black" stroke="black"/>
<circle cx="111.88" cy="16.1408" r="2.57551" fill="black" stroke="black"/>
<circle cx="30.239" cy="18.3777" r="2.01633" fill="black" stroke="black"/>
<circle cx="34.3858" cy="88.2784" r="12.4429" fill="black"/>
<circle cx="91.4776" cy="88.2784" r="12.4429" fill="black"/>
<path d="M50.7324 97.3056V97.3056C52.8607 111.812 73.9649 111.874 75.6183 97.3056V97.3056" stroke="black" stroke-width="8" stroke-linecap="round"/>
</svg>
