<svg width="229" height="279" viewBox="0 0 229 279" fill="none" xmlns="http://www.w3.org/2000/svg">
<path d="M41.8193 207.644L33.4937 237.588C32.7243 240.356 32.4187 243.232 32.5895 246.099L32.9943 252.895C33.0343 253.566 32.413 254.085 31.7593 253.926L26.4674 252.636" stroke="black" stroke-width="8" stroke-linecap="round"/>
<path d="M63.0451 206.634L64.6556 226.78C64.8862 229.665 65.5968 232.491 66.758 235.141L71.2197 245.325C71.744 246.522 70.9986 247.892 69.7088 248.102L64.852 248.892" stroke="black" stroke-width="8" stroke-linecap="round"/>
<path d="M59.8082 105.393L70.8279 116.681C79.5103 125.575 80.2716 139.521 72.609 149.307V149.307" stroke="black" stroke-width="8" stroke-linecap="round"/>
<path d="M29.0957 106.456L19.4252 117.078C13.4658 123.624 11.2466 132.753 13.5356 141.304L14.5491 145.091" stroke="black" stroke-width="8" stroke-linecap="round"/>
<path d="M60.6904 61.4902L55.3686 63.1626C55.0566 63.2606 54.7337 63.32 54.4073 63.3395L40.7787 64.1513C40.5897 64.1625 40.4018 64.1872 40.2164 64.225L20.093 68.3334" stroke="black" stroke-width="6"/>
<path d="M66.3142 160.865L58.2494 77.0287C58.0112 74.5529 55.5953 72.8924 53.1986 73.5572L50.0754 74.4236C49.804 74.4989 49.5253 74.5453 49.2441 74.562L39.9665 75.1146L27.9492 76.4204L24.6367 76.6177C24.4938 76.6262 24.3505 76.6191 24.2091 76.5964C22.953 76.3948 21.8401 77.4236 21.9428 78.6917L23.9749 103.797L30.08 151.814L33.0562 201.779C33.1448 203.268 34.7693 204.143 36.0612 203.398C36.774 202.987 37.6654 203.053 38.3101 203.564L41.1138 205.787C42.3392 206.759 44.0186 206.927 45.4125 206.218L52.0039 202.865C53.3979 202.156 55.0772 202.325 56.3027 203.296L58.3555 204.924C59.4803 205.816 60.9967 206.037 62.329 205.502L66.142 203.974C67.7401 203.333 68.749 201.742 68.6466 200.023L66.3142 160.865Z" fill="#F9DE7D" stroke="black" stroke-width="5"/>
<path d="M51.349 102.757L48.4785 79.3277" stroke="black" stroke-width="3" stroke-linecap="round"/>
<path d="M53.5995 130.648L52.584 113.598" stroke="black" stroke-width="3" stroke-linecap="round"/>
<path d="M56.6784 202.149L55.2426 178.045L55.6545 150.29L55.1992 142.647" stroke="black" stroke-width="3" stroke-linecap="round"/>
<path d="M41.8586 200.967L40.1602 172.453" stroke="black" stroke-width="3" stroke-linecap="round"/>
<path d="M39.8234 161.853L40.5615 154.434" stroke="black" stroke-width="3" stroke-linecap="round"/>
<path d="M38.2941 151.029L39.0322 143.61" stroke="black" stroke-width="3" stroke-linecap="round"/>
<path d="M36.6027 132.545L34.8168 102.561L33.416 79.0448" stroke="black" stroke-width="3" stroke-linecap="round"/>
<path d="M17.916 63.4553L18.6118 65.5542C18.7212 65.8845 18.7872 66.2277 18.8079 66.575L18.9885 69.6082C19.0217 70.1644 18.8894 70.7179 18.6085 71.199C17.7188 72.7227 18.4298 74.68 20.09 75.2773L22.4559 76.1286C22.9657 76.3121 23.5073 76.39 24.0481 76.3578L48.348 74.9104C48.6502 74.8924 48.9494 74.8401 49.2398 74.7547L58.3022 72.0869C59.4468 71.7499 60.3812 70.9196 60.8504 69.8226L61.605 68.0583C62.1272 66.8375 62.0094 65.437 61.2908 64.3205L60.434 62.9893C59.8501 62.0822 59.6913 60.9654 59.999 59.9315C60.3146 58.8711 60.1391 57.7252 59.5206 56.8078L57.5668 53.9098C56.776 52.7369 55.4244 52.0689 54.0123 52.153L50.7056 52.3499L38.6533 53.0678L22.6692 55.607C21.5014 55.7925 20.4756 56.4852 19.8671 57.499L18.2831 60.1382C17.6833 61.1376 17.5492 62.3489 17.916 63.4553Z" fill="#B7B7B7" stroke="black" stroke-width="5"/>
<path d="M60.8443 222.551L68.0048 208.405C68.1568 208.105 68.2528 207.78 68.2883 207.445C68.5149 205.309 66.331 203.737 64.377 204.63L62.3646 205.55C60.8734 206.232 59.1179 205.944 57.9232 204.821L57.3319 204.265C55.6914 202.723 53.2495 202.4 51.265 203.464L46.8845 205.811C44.8026 206.927 42.2512 206.662 40.443 205.142L38.9474 203.885C38.0912 203.166 36.8893 203.024 35.8893 203.525C34.5625 204.189 33.9839 205.773 34.5696 207.137L44.7335 230.794C45.24 231.973 46.1113 232.959 47.2194 233.606C49.0094 234.651 51.2122 234.698 53.0449 233.729L54.0334 233.207C55.5631 232.399 56.7899 231.117 57.5301 229.553L60.8443 222.551Z" fill="#D3B7A7" stroke="black" stroke-width="5"/>
<path d="M56.9929 31.1542L57.3566 32.1263C58.3606 34.8102 58.6189 37.7159 58.104 40.5347L56.269 50.58C56.2401 50.7386 56.3085 50.899 56.4429 50.9879C56.7654 51.201 56.6309 51.702 56.2451 51.725L39.8122 52.7038L22.5665 55.4156C21.9985 55.5049 21.4167 55.4096 20.9069 55.1435C20.4266 54.8929 20.0333 54.5029 19.7787 54.0247L14.4677 44.0498C13.4097 42.0627 12.7928 39.8708 12.6589 37.6236L12.5685 36.1063C12.4404 33.9543 12.9636 31.8136 14.07 29.9633C15.557 27.4766 17.9867 25.6971 20.8063 25.0299L29.1314 23.06C32.8274 22.1854 36.6527 21.998 40.4165 22.5072L47.3316 23.4427C49.9551 23.7976 52.3885 25.0074 54.255 26.8849C55.4604 28.0974 56.3938 29.5528 56.9929 31.1542Z" fill="#FF9A9A" stroke="black" stroke-width="5"/>
<path d="M59.5146 61.5603L48.7258 63.6779L29.3771 65.7154L19.1586 67.5041" stroke="black" stroke-width="3"/>
<path d="M52.1257 228.591L55.6981 231.344C55.8475 231.46 55.945 231.629 55.9693 231.816C56.0158 232.176 55.7846 232.513 55.4326 232.599L49.9474 233.938C48.701 234.242 47.4001 233.712 46.7208 232.624C45.683 230.961 46.5107 228.767 48.3882 228.203L49.0111 228.016C50.0813 227.695 51.2407 227.909 52.1257 228.591Z" fill="black"/>
<circle cx="4.71166" cy="4.71166" r="4.71166" transform="matrix(-0.998231 0.059459 0.059459 0.998231 29.1445 32.0992)" fill="black"/>
<ellipse cx="4.71166" cy="4.41718" rx="4.71166" ry="4.41718" transform="matrix(-0.998231 0.059459 0.059459 0.998231 49.6865 30.2856)" fill="black"/>
<path d="M40.8569 40.5461L40.7818 41.1554C40.0402 47.1707 31.3207 47.1733 30.5755 41.1585V41.1585" stroke="black" stroke-width="4" stroke-linecap="round"/>
<path d="M139.563 237.801L140.295 241.933L137.073 241.28C135.499 240.961 133.863 241.275 132.519 242.154C127.38 245.517 129.867 253.509 136.007 253.362L143.637 253.179C144.12 253.167 144.601 253.108 145.073 253.001C149.034 252.111 151.523 248.177 150.632 244.216L143.437 212.22C142.78 209.298 142.452 206.312 142.459 203.317L142.552 163.371C142.557 161.388 140.961 159.772 138.978 159.753C136.995 159.734 135.367 161.319 135.334 163.302L134.639 205.189C134.591 208.12 134.824 211.049 135.335 213.936L139.563 237.801Z" fill="black"/>
<path d="M140.295 241.933L139.563 237.801M140.295 241.933L135.335 213.936C134.824 211.049 134.591 208.12 134.639 205.189L135.334 163.302C135.367 161.319 136.995 159.734 138.978 159.753V159.753C140.961 159.772 142.557 161.388 142.552 163.371L142.459 203.317C142.452 206.312 142.78 209.298 143.437 212.22L150.632 244.216C151.523 248.177 149.034 252.111 145.073 253.001V253.001C144.601 253.108 144.12 253.167 143.637 253.179L136.007 253.362C129.867 253.509 127.38 245.517 132.519 242.154V242.154C133.863 241.275 135.499 240.961 137.073 241.28L140.295 241.933ZM174.716 265.95L173.801 266.903" stroke="black"/>
<path d="M181.55 237.129L182.189 241.276L178.982 240.551C177.416 240.196 175.773 240.473 174.41 241.322C169.196 244.568 171.502 252.615 177.644 252.606L185.276 252.594C185.76 252.593 186.242 252.545 186.716 252.449C190.696 251.648 193.273 247.772 192.472 243.791L185.998 211.641C185.407 208.705 185.146 205.713 185.221 202.719L186.213 162.784C186.262 160.802 184.703 159.151 182.721 159.087C180.739 159.024 179.076 160.572 178.999 162.554L177.361 204.414C177.247 207.343 177.414 210.277 177.86 213.175L181.55 237.129Z" fill="black"/>
<path d="M182.189 241.276L181.55 237.129M182.189 241.276L177.86 213.175C177.414 210.277 177.247 207.343 177.361 204.414L178.999 162.554C179.076 160.572 180.739 159.024 182.721 159.087V159.087C184.703 159.151 186.262 160.802 186.213 162.784L185.221 202.719C185.146 205.713 185.407 208.705 185.998 211.641L192.472 243.791C193.273 247.772 190.696 251.648 186.716 252.449V252.449C186.242 252.545 185.76 252.593 185.276 252.594L177.644 252.606C171.502 252.615 169.196 244.568 174.41 241.322V241.322C175.773 240.473 177.416 240.196 178.982 240.551L182.189 241.276ZM216.06 266.062L215.124 266.994" stroke="black"/>
<path d="M105.658 186.972L95.0332 174.949L207.709 9.15109L223.645 16.9404V25.5672V40.5945L225.603 74.8233V91.2421L227.001 111L225.603 127.697V149.403V173.614L223.645 183.91L205.472 185.858L105.658 186.972Z" fill="white" stroke="black" stroke-width="3"/>
<path d="M100.904 180.82H155.425L175.835 178.863L217.214 178.025" stroke="black"/>
<path d="M219.731 181.1L161.576 182.218L102.582 183.337" stroke="black" stroke-width="2"/>
<path d="M213.579 12.2266L216.095 37.1103L217.214 57.5205L216.095 92.1899L218.891 124.343V166.841L217.493 178.304" stroke="black" stroke-width="3"/>
<path d="M224.204 182.218L223.365 166.841L221.967 140.28V89.9532L225.322 72.6185L221.967 41.8634L220.569 14.743" stroke="black"/>
<path d="M217.215 13.9042L218.613 27.8838V43.8205L219.731 74.8552L220.85 92.1899V116.514V145.312L219.452 181.38" stroke="black" stroke-width="2"/>
<path d="M93.9143 157.894V169.067C93.9143 172.933 97.0483 176.067 100.914 176.067H107.614H171.082H207.139C211.005 176.067 214.139 172.933 214.139 169.067V152.302L216.331 124.072C216.361 123.694 216.359 123.314 216.327 122.936L214.139 97.2225L211.622 63.3919L209.666 15.4656C209.511 11.6502 206.326 8.66355 202.508 8.75295L96.8361 11.2277C93.035 11.3167 90 14.4237 90 18.2258V50.5307V94.7062L93.9143 157.894Z" fill="white" stroke="black" stroke-width="4"/>
<path d="M95.5918 16.7001L96.2598 9.7975C96.3686 8.67325 96.9454 7.64665 97.849 6.96894L98.3742 6.57499C99.7919 5.51175 101.794 5.74561 102.928 7.10695V7.10695C103.427 7.70515 103.7 8.45918 103.7 9.23786V10.5491" stroke="black" stroke-width="5"/>
<path d="M106.776 16.4204L107.109 12.9849C107.417 9.79698 109.556 7.08134 112.582 6.03367L113.983 5.5488C114.571 5.34516 115.206 5.31712 115.81 5.46811V5.46811C117.238 5.82508 118.24 7.10801 118.24 8.57981V9.98979" stroke="black" stroke-width="5"/>
<path d="M118.518 16.4204L118.857 12.8225C119.149 9.73066 121.208 7.08883 124.135 6.05037L125.53 5.55539C126.115 5.34767 126.749 5.31908 127.351 5.47329V5.47329C128.734 5.82766 129.701 7.07392 129.701 8.50154V9.98979" stroke="black" stroke-width="5"/>
<path d="M132.498 15.8613L132.831 12.4258C133.139 9.23789 135.277 6.52226 138.304 5.47459L139.705 4.98972C140.293 4.78608 140.928 4.75804 141.532 4.90903V4.90903C142.96 5.266 143.961 6.54893 143.961 8.02073V9.4307" stroke="black" stroke-width="5"/>
<path d="M144.8 16.4204L145.132 12.9849C145.441 9.79698 147.579 7.08134 150.606 6.03367L152.006 5.5488C152.595 5.34516 153.23 5.31712 153.834 5.46811V5.46811C155.261 5.82508 156.263 7.10801 156.263 8.57981V9.98979" stroke="black" stroke-width="5"/>
<path d="M157.661 16.4204L157.994 12.9849C158.302 9.79698 160.44 7.08134 163.467 6.03367L164.868 5.5488C165.456 5.34516 166.091 5.31712 166.695 5.46811V5.46811C168.123 5.82508 169.124 7.10801 169.124 8.57981V9.98979" stroke="black" stroke-width="5"/>
<path d="M171.641 14.7429L171.973 11.3074C172.282 8.11949 174.42 5.40385 177.447 4.35618L178.847 3.87131C179.436 3.66767 180.07 3.63963 180.674 3.79062V3.79062C182.102 4.14759 183.104 5.43052 183.104 6.90232V8.3123" stroke="black" stroke-width="5"/>
<path d="M185.062 14.1837L185.394 10.7482C185.702 7.56031 187.841 4.84467 190.867 3.79701L192.268 3.31214C192.856 3.1085 193.491 3.08046 194.095 3.23145V3.23145C195.523 3.58842 196.525 4.87135 196.525 6.34315V7.75312" stroke="black" stroke-width="5"/>
<path d="M199.041 15.8614L199.744 8.5987C199.83 7.70627 200.299 6.89488 201.028 6.37374L201.143 6.29202C201.594 5.96945 202.135 5.79605 202.69 5.79605V5.79605C203.977 5.79605 205.08 6.71634 205.31 7.98242L205.472 8.87156" stroke="black" stroke-width="5"/>
<circle cx="95.3122" cy="18.3777" r="2.01633" fill="black" stroke="black"/>
<circle cx="105.936" cy="18.3777" r="2.01633" fill="black" stroke="black"/>
<circle cx="132.218" cy="18.3775" r="2.57551" fill="black" stroke="black"/>
<circle cx="143.961" cy="17.8185" r="2.57551" fill="black" stroke="black"/>
<circle cx="157.382" cy="17.8185" r="2.57551" fill="black" stroke="black"/>
<circle cx="171.92" cy="16.1408" r="2.57551" fill="black" stroke="black"/>
<circle cx="185.341" cy="16.1408" r="2.57551" fill="black" stroke="black"/>
<circle cx="199.879" cy="16.1408" r="2.57551" fill="black" stroke="black"/>
<circle cx="118.239" cy="18.3777" r="2.01633" fill="black" stroke="black"/>
<circle cx="122.386" cy="88.2784" r="12.4429" fill="black"/>
<circle cx="179.478" cy="88.2784" r="12.4429" fill="black"/>
<path d="M138.732 97.3056V97.3056C140.861 111.812 161.965 111.874 163.618 97.3056V97.3056" stroke="black" stroke-width="8" stroke-linecap="round"/>
</svg>
